# Blender v2.92.0 OBJ File: ''
# www.blender.org
mtllib dir.mtl
o Cone_Cone.001
v 0.000000 0.000000 -1.000000
v 0.000000 1.000000 -0.500000
v 0.097545 0.000000 -0.990393
v 0.195090 0.000000 -0.980785
v 0.097545 1.000000 -0.490393
v 0.288887 0.000000 -0.952332
v 0.382683 0.000000 -0.923880
v 0.191342 1.000000 -0.461940
v 0.469127 0.000000 -0.877675
v 0.555570 0.000000 -0.831470
v 0.277785 1.000000 -0.415735
v 0.631338 0.000000 -0.769288
v 0.707107 0.000000 -0.707107
v 0.353553 1.000000 -0.353553
v 0.769288 0.000000 -0.631338
v 0.831470 0.000000 -0.555570
v 0.415735 1.000000 -0.277785
v 0.877675 0.000000 -0.469127
v 0.923880 0.000000 -0.382683
v 0.461940 1.000000 -0.191342
v 0.952332 0.000000 -0.288887
v 0.980785 0.000000 -0.195090
v 0.490393 1.000000 -0.097545
v 0.990393 0.000000 -0.097545
v 1.000000 0.000000 -0.000000
v 0.500000 1.000000 0.000000
v 0.990393 0.000000 0.097545
v 0.980785 0.000000 0.195090
v 0.490393 1.000000 0.097545
v 0.952332 0.000000 0.288887
v 0.923880 -0.000000 0.382683
v 0.461940 1.000000 0.191342
v 0.877675 -0.000000 0.469127
v 0.831470 -0.000000 0.555570
v 0.415735 1.000000 0.277785
v 0.769288 -0.000000 0.631338
v 0.707107 -0.000000 0.707107
v 0.353553 1.000000 0.353553
v 0.631338 -0.000000 0.769288
v 0.555570 -0.000000 0.831470
v 0.277785 1.000000 0.415735
v 0.469127 -0.000000 0.877675
v 0.382683 -0.000000 0.923880
v 0.191342 1.000000 0.461940
v 0.288887 -0.000000 0.952332
v 0.195090 -0.000000 0.980785
v 0.097545 1.000000 0.490393
v 0.097545 -0.000000 0.990393
v 0.000000 -0.000000 1.000000
v 0.000000 1.000000 0.500000
v -0.097546 -0.000000 0.990393
v -0.195091 -0.000000 0.980785
v -0.097545 1.000000 0.490393
v -0.288887 -0.000000 0.952332
v -0.382684 -0.000000 0.923879
v -0.191342 1.000000 0.461940
v -0.469127 -0.000000 0.877674
v -0.555571 -0.000000 0.831469
v -0.277785 1.000000 0.415735
v -0.631339 -0.000000 0.769288
v -0.707107 -0.000000 0.707106
v -0.353554 1.000000 0.353553
v -0.769289 -0.000000 0.631338
v -0.831470 -0.000000 0.555570
v -0.415735 1.000000 0.277785
v -0.877675 -0.000000 0.469126
v -0.923880 -0.000000 0.382683
v -0.461940 1.000000 0.191341
v -0.952333 0.000000 0.288886
v -0.980785 0.000000 0.195089
v -0.490393 1.000000 0.097545
v -0.990393 0.000000 0.097544
v -1.000000 0.000000 -0.000001
v -0.500000 1.000000 0.000000
v -0.990393 0.000000 -0.097546
v -0.980785 0.000000 -0.195091
v -0.490393 1.000000 -0.097546
v -0.952332 0.000000 -0.288888
v -0.923879 0.000000 -0.382684
v -0.461940 1.000000 -0.191342
v -0.877674 0.000000 -0.469128
v -0.831469 0.000000 -0.555571
v -0.415734 1.000000 -0.277786
v -0.769287 0.000000 -0.631339
v -0.707106 0.000000 -0.707108
v -0.353553 1.000000 -0.353554
v -0.631338 0.000000 -0.769289
v -0.555569 0.000000 -0.831470
v -0.277785 1.000000 -0.415735
v -0.469126 0.000000 -0.877675
v -0.382682 0.000000 -0.923880
v -0.288885 0.000000 -0.952333
v -0.195089 0.000000 -0.980786
v -0.097544 0.000000 -0.990393
v -0.191341 1.000000 -0.461940
v -0.097544 1.000000 -0.490393
v -1.000000 0.900000 1.000000
v -1.000000 1.100000 1.000000
v -1.000000 1.100000 -1.000000
v -1.000000 0.900000 -1.000000
v 1.000000 1.100000 -1.000000
v 1.000000 0.900000 -1.000000
v 1.000000 1.100000 1.000000
v 1.000000 0.900000 1.000000
vt 0.250000 0.490000
vt 0.250000 0.370000
vt 0.273411 0.487694
vt 0.296822 0.485388
vt 0.273411 0.367694
vt 0.319333 0.478560
vt 0.341844 0.471731
vt 0.295922 0.360866
vt 0.362590 0.460642
vt 0.383337 0.449553
vt 0.316668 0.349776
vt 0.401521 0.434629
vt 0.419706 0.419706
vt 0.334853 0.334853
vt 0.434629 0.401521
vt 0.449553 0.383337
vt 0.349776 0.316668
vt 0.460642 0.362590
vt 0.471731 0.341844
vt 0.360866 0.295922
vt 0.478560 0.319333
vt 0.485388 0.296822
vt 0.367694 0.273411
vt 0.487694 0.273411
vt 0.490000 0.250000
vt 0.370000 0.250000
vt 0.487694 0.226589
vt 0.485388 0.203178
vt 0.367694 0.226589
vt 0.478560 0.180667
vt 0.471731 0.158156
vt 0.360866 0.204078
vt 0.460642 0.137410
vt 0.449553 0.116663
vt 0.349776 0.183332
vt 0.434629 0.098479
vt 0.419706 0.080294
vt 0.334853 0.165147
vt 0.401521 0.065371
vt 0.383337 0.050447
vt 0.316668 0.150224
vt 0.362590 0.039358
vt 0.341844 0.028269
vt 0.295922 0.139134
vt 0.319333 0.021440
vt 0.296822 0.014612
vt 0.273411 0.132306
vt 0.273411 0.012306
vt 0.250000 0.010000
vt 0.250000 0.130000
vt 0.226589 0.012306
vt 0.203178 0.014612
vt 0.226589 0.132306
vt 0.180667 0.021440
vt 0.158156 0.028269
vt 0.204078 0.139134
vt 0.137409 0.039358
vt 0.116663 0.050447
vt 0.183332 0.150224
vt 0.098479 0.065371
vt 0.080294 0.080294
vt 0.165147 0.165147
vt 0.065371 0.098479
vt 0.050447 0.116663
vt 0.150224 0.183332
vt 0.039358 0.137410
vt 0.028269 0.158156
vt 0.139134 0.204078
vt 0.021440 0.180667
vt 0.014611 0.203179
vt 0.132306 0.226589
vt 0.012306 0.226589
vt 0.010000 0.250000
vt 0.130000 0.250000
vt 0.012306 0.273411
vt 0.014612 0.296822
vt 0.132306 0.273411
vt 0.021440 0.319333
vt 0.028269 0.341844
vt 0.139135 0.295922
vt 0.039358 0.362591
vt 0.050447 0.383337
vt 0.150224 0.316669
vt 0.065371 0.401521
vt 0.080295 0.419706
vt 0.165147 0.334853
vt 0.098479 0.434629
vt 0.116663 0.449553
vt 0.183332 0.349776
vt 0.137410 0.460642
vt 0.750000 0.490000
vt 0.773411 0.487694
vt 0.796822 0.485388
vt 0.819333 0.478560
vt 0.841844 0.471731
vt 0.862590 0.460642
vt 0.883337 0.449553
vt 0.901521 0.434629
vt 0.919706 0.419706
vt 0.934629 0.401521
vt 0.949553 0.383337
vt 0.960642 0.362590
vt 0.971731 0.341844
vt 0.978560 0.319333
vt 0.985388 0.296822
vt 0.987694 0.273411
vt 0.990000 0.250000
vt 0.987694 0.226589
vt 0.985388 0.203178
vt 0.978560 0.180667
vt 0.971731 0.158156
vt 0.960642 0.137410
vt 0.949553 0.116663
vt 0.934629 0.098479
vt 0.919706 0.080294
vt 0.901521 0.065371
vt 0.883337 0.050447
vt 0.862590 0.039358
vt 0.841844 0.028269
vt 0.819333 0.021440
vt 0.796822 0.014612
vt 0.773411 0.012306
vt 0.750000 0.010000
vt 0.726589 0.012306
vt 0.703178 0.014612
vt 0.680667 0.021440
vt 0.658156 0.028269
vt 0.637409 0.039358
vt 0.616663 0.050447
vt 0.598479 0.065371
vt 0.580294 0.080294
vt 0.565371 0.098479
vt 0.550447 0.116663
vt 0.539358 0.137410
vt 0.528269 0.158156
vt 0.521440 0.180667
vt 0.514611 0.203179
vt 0.512306 0.226589
vt 0.510000 0.250000
vt 0.512306 0.273411
vt 0.514612 0.296822
vt 0.521440 0.319333
vt 0.528269 0.341844
vt 0.539358 0.362591
vt 0.550447 0.383337
vt 0.565371 0.401521
vt 0.580295 0.419706
vt 0.598479 0.434629
vt 0.616663 0.449553
vt 0.637410 0.460642
vt 0.658156 0.471731
vt 0.680668 0.478560
vt 0.703179 0.485389
vt 0.726589 0.487694
vt 0.158156 0.471731
vt 0.204078 0.360866
vt 0.180667 0.478560
vt 0.203179 0.485389
vt 0.226589 0.367694
vt 0.226589 0.487694
vt 0.375000 0.000000
vt 0.625000 0.000000
vt 0.625000 0.250000
vt 0.375000 0.250000
vt 0.625000 0.500000
vt 0.375000 0.500000
vt 0.625000 0.750000
vt 0.375000 0.750000
vt 0.625000 1.000000
vt 0.375000 1.000000
vt 0.125000 0.500000
vt 0.125000 0.750000
vt 0.875000 0.500000
vt 0.875000 0.750000
vn 0.0878 0.4455 -0.8910
vn 0.2599 0.4455 -0.8567
vn 0.4220 0.4455 -0.7896
vn 0.5680 0.4455 -0.6921
vn 0.6921 0.4455 -0.5680
vn 0.7896 0.4455 -0.4220
vn 0.8567 0.4455 -0.2599
vn 0.8910 0.4455 -0.0878
vn 0.8910 0.4455 0.0878
vn 0.8567 0.4455 0.2599
vn 0.7896 0.4455 0.4220
vn 0.6921 0.4455 0.5680
vn 0.5680 0.4455 0.6921
vn 0.4220 0.4455 0.7896
vn 0.2599 0.4455 0.8567
vn 0.0878 0.4455 0.8910
vn -0.0877 0.4455 0.8910
vn -0.0878 0.4455 0.8910
vn -0.2599 0.4455 0.8567
vn -0.4220 0.4455 0.7896
vn -0.5680 0.4455 0.6921
vn -0.6921 0.4455 0.5680
vn -0.7896 0.4455 0.4220
vn -0.8567 0.4455 0.2599
vn -0.8910 0.4455 0.0878
vn -0.8910 0.4455 -0.0878
vn -0.8910 0.4455 -0.0877
vn -0.8567 0.4455 -0.2599
vn -0.7896 0.4455 -0.4220
vn -0.6921 0.4455 -0.5680
vn -0.5680 0.4455 -0.6921
vn -0.4220 0.4455 -0.7896
vn 0.0000 -1.0000 -0.0000
vn -0.2599 0.4455 -0.8567
vn -0.0878 0.4455 -0.8910
vn -0.0000 1.0000 0.0000
vn -1.0000 0.0000 0.0000
vn 0.0000 0.0000 -1.0000
vn 1.0000 0.0000 0.0000
vn 0.0000 0.0000 1.0000
usemtl Material.001
s 1
f 1/1/1 2/2/1 3/3/1
f 4/4/2 5/5/2 6/6/2
f 7/7/3 8/8/3 9/9/3
f 10/10/4 11/11/4 12/12/4
f 13/13/5 14/14/5 15/15/5
f 16/16/6 17/17/6 18/18/6
f 19/19/7 20/20/7 21/21/7
f 22/22/8 23/23/8 24/24/8
f 25/25/9 26/26/9 27/27/9
f 28/28/10 29/29/10 30/30/10
f 31/31/11 32/32/11 33/33/11
f 34/34/12 35/35/12 36/36/12
f 37/37/13 38/38/13 39/39/13
f 40/40/14 41/41/14 42/42/14
f 43/43/15 44/44/15 45/45/15
f 46/46/16 47/47/16 48/48/16
f 49/49/17 50/50/17 51/51/18
f 52/52/19 53/53/19 54/54/19
f 55/55/20 56/56/20 57/57/20
f 58/58/21 59/59/21 60/60/21
f 61/61/22 62/62/22 63/63/22
f 64/64/23 65/65/23 66/66/23
f 67/67/24 68/68/24 69/69/24
f 70/70/25 71/71/25 72/72/25
f 73/73/26 74/74/27 75/75/26
f 76/76/28 77/77/28 78/78/28
f 79/79/29 80/80/29 81/81/29
f 82/82/30 83/83/30 84/84/30
f 85/85/31 86/86/31 87/87/31
f 88/88/32 89/89/32 90/90/32
f 1/91/33 3/92/33 4/93/33 6/94/33 7/95/33 9/96/33 10/97/33 12/98/33 13/99/33 15/100/33 16/101/33 18/102/33 19/103/33 21/104/33 22/105/33 24/106/33 25/107/33 27/108/33 28/109/33 30/110/33 31/111/33 33/112/33 34/113/33 36/114/33 37/115/33 39/116/33 40/117/33 42/118/33 43/119/33 45/120/33 46/121/33 48/122/33 49/123/33 51/124/33 52/125/33 54/126/33 55/127/33 57/128/33 58/129/33 60/130/33 61/131/33 63/132/33 64/133/33 66/134/33 67/135/33 69/136/33 70/137/33 72/138/33 73/139/33 75/140/33 76/141/33 78/142/33 79/143/33 81/144/33 82/145/33 84/146/33 85/147/33 87/148/33 88/149/33 90/150/33 91/151/33 92/152/33 93/153/33 94/154/33
f 91/155/34 95/156/34 92/157/34
f 93/158/35 96/159/35 94/160/35
f 94/160/35 2/2/35 1/1/35
f 94/160/35 96/159/35 2/2/35
f 92/157/34 96/159/34 93/158/34
f 92/157/34 95/156/34 96/159/34
f 90/90/32 95/156/32 91/155/32
f 90/90/32 89/89/32 95/156/32
f 87/87/31 89/89/31 88/88/31
f 87/87/31 86/86/31 89/89/31
f 84/84/30 86/86/30 85/85/30
f 84/84/30 83/83/30 86/86/30
f 81/81/29 83/83/29 82/82/29
f 81/81/29 80/80/29 83/83/29
f 78/78/28 80/80/28 79/79/28
f 78/78/28 77/77/28 80/80/28
f 75/75/26 77/77/27 76/76/26
f 75/75/26 74/74/27 77/77/27
f 72/72/25 74/74/25 73/73/25
f 72/72/25 71/71/25 74/74/25
f 69/69/24 71/71/24 70/70/24
f 69/69/24 68/68/24 71/71/24
f 66/66/23 68/68/23 67/67/23
f 66/66/23 65/65/23 68/68/23
f 63/63/22 65/65/22 64/64/22
f 63/63/22 62/62/22 65/65/22
f 60/60/21 62/62/21 61/61/21
f 60/60/21 59/59/21 62/62/21
f 57/57/20 59/59/20 58/58/20
f 57/57/20 56/56/20 59/59/20
f 54/54/19 56/56/19 55/55/19
f 54/54/19 53/53/19 56/56/19
f 51/51/18 53/53/18 52/52/18
f 51/51/18 50/50/17 53/53/18
f 48/48/16 50/50/16 49/49/16
f 48/48/16 47/47/16 50/50/16
f 45/45/15 47/47/15 46/46/15
f 45/45/15 44/44/15 47/47/15
f 42/42/14 44/44/14 43/43/14
f 42/42/14 41/41/14 44/44/14
f 39/39/13 41/41/13 40/40/13
f 39/39/13 38/38/13 41/41/13
f 36/36/12 38/38/12 37/37/12
f 36/36/12 35/35/12 38/38/12
f 33/33/11 35/35/11 34/34/11
f 33/33/11 32/32/11 35/35/11
f 30/30/10 32/32/10 31/31/10
f 30/30/10 29/29/10 32/32/10
f 27/27/9 29/29/9 28/28/9
f 27/27/9 26/26/9 29/29/9
f 24/24/8 26/26/8 25/25/8
f 24/24/8 23/23/8 26/26/8
f 21/21/7 23/23/7 22/22/7
f 21/21/7 20/20/7 23/23/7
f 18/18/6 20/20/6 19/19/6
f 18/18/6 17/17/6 20/20/6
f 15/15/5 17/17/5 16/16/5
f 15/15/5 14/14/5 17/17/5
f 12/12/4 14/14/4 13/13/4
f 12/12/4 11/11/4 14/14/4
f 9/9/3 11/11/3 10/10/3
f 9/9/3 8/8/3 11/11/3
f 6/6/2 8/8/2 7/7/2
f 6/6/2 5/5/2 8/8/2
f 3/3/1 5/5/1 4/4/1
f 3/3/1 2/2/1 5/5/1
f 2/2/36 96/159/36 95/156/36 89/89/36 86/86/36 83/83/36 80/80/36 77/77/36 74/74/36 71/71/36 68/68/36 65/65/36 62/62/36 59/59/36 56/56/36 53/53/36 50/50/36 47/47/36 44/44/36 41/41/36 38/38/36 35/35/36 32/32/36 29/29/36 26/26/36 23/23/36 20/20/36 17/17/36 14/14/36 11/11/36 8/8/36 5/5/36
f 97/161/37 98/162/37 99/163/37 100/164/37
f 100/164/38 99/163/38 101/165/38 102/166/38
f 102/166/39 101/165/39 103/167/39 104/168/39
f 104/168/40 103/167/40 98/169/40 97/170/40
f 100/171/33 102/166/33 104/168/33 97/172/33
f 101/165/36 99/173/36 98/174/36 103/167/36
